<svg id="Layer_1" data-name="Layer 1" xmlns="http://www.w3.org/2000/svg" viewBox="0 0 380.04 52.36"><path d="M96.53,43h-8.3l-11-16.68V43h-8.3V13.16h8.3l11,16.89V13.16h8.3Z"/><path d="M106,41.82a11,11,0,0,1-4.43-4.24,12.6,12.6,0,0,1-1.6-6.47,12.38,12.38,0,0,1,1.63-6.44A11,11,0,0,1,106,20.44a14.45,14.45,0,0,1,12.74,0,11.11,11.11,0,0,1,4.45,4.23,12.38,12.38,0,0,1,1.63,6.44,12.47,12.47,0,0,1-1.63,6.45,11,11,0,0,1-4.47,4.26,14.49,14.49,0,0,1-12.76,0Zm9.27-7a5.33,5.33,0,0,0,1.16-3.7,5.27,5.27,0,0,0-1.16-3.69,3.76,3.76,0,0,0-2.86-1.27,3.67,3.67,0,0,0-2.83,1.27,5.32,5.32,0,0,0-1.15,3.69,5.56,5.56,0,0,0,1.1,3.72,3.58,3.58,0,0,0,2.84,1.27A3.75,3.75,0,0,0,115.22,34.81Z"/><path d="M139.88,20.23A8.23,8.23,0,0,1,144.16,19v8.85h-2.33a6.29,6.29,0,0,0-4,1.06c-.88.7-1.32,1.93-1.32,3.68V43H128.2V19.25h8.29v4.19A10.78,10.78,0,0,1,139.88,20.23Z"/><path d="M147.1,24.67a10.13,10.13,0,0,1,3.66-4.23A9.38,9.38,0,0,1,155.92,19a8.54,8.54,0,0,1,4.09.95,7.16,7.16,0,0,1,2.82,2.6V11.67h8.34V43h-8.34V39.7a7,7,0,0,1-2.76,2.62,8.56,8.56,0,0,1-4.19,1,9.38,9.38,0,0,1-5.14-1.48,10.13,10.13,0,0,1-3.64-4.26,14.72,14.72,0,0,1-1.34-6.45A14.61,14.61,0,0,1,147.1,24.67Zm14.52,2.84a4.28,4.28,0,0,0-6.16,0,5,5,0,0,0-1.23,3.62,5.14,5.14,0,0,0,1.23,3.62,4.25,4.25,0,0,0,6.16,0,5.09,5.09,0,0,0,1.25-3.64A5,5,0,0,0,161.62,27.51Z"/><path d="M176.56,15.84a3.89,3.89,0,0,1-1.33-3,4,4,0,0,1,1.33-3.09A5,5,0,0,1,180.1,8.5a4.94,4.94,0,0,1,3.49,1.23,4,4,0,0,1,1.33,3.09,3.89,3.89,0,0,1-1.33,3,5,5,0,0,1-3.49,1.21A5.05,5.05,0,0,1,176.56,15.84Zm7.64,3.41V43h-8.29V19.25Z"/><path d="M189.11,24.67a10.58,10.58,0,0,1,4.26-4.23A12.85,12.85,0,0,1,199.61,19a11.8,11.8,0,0,1,7.62,2.47,11.37,11.37,0,0,1,4,6.92h-8.8a3,3,0,0,0-3-2.32A2.86,2.86,0,0,0,197,27.32a6.53,6.53,0,0,0-.91,3.79,6.66,6.66,0,0,0,.91,3.81,2.86,2.86,0,0,0,2.47,1.31,2.91,2.91,0,0,0,3-2.33h8.8a11.4,11.4,0,0,1-4,6.9,11.71,11.71,0,0,1-7.62,2.5,13,13,0,0,1-6.24-1.48,10.54,10.54,0,0,1-4.26-4.24,13.19,13.19,0,0,1-1.52-6.47A13.16,13.16,0,0,1,189.11,24.67Z"/><path d="M250.37,43h-8.29L231,26.32V43h-8.3V13.16H231l11.05,16.89V13.16h8.29Z"/><path d="M259.79,41.82a10.93,10.93,0,0,1-4.42-4.24,12.6,12.6,0,0,1-1.61-6.47,12.38,12.38,0,0,1,1.63-6.44,11.11,11.11,0,0,1,4.45-4.23,14.45,14.45,0,0,1,12.74,0A11.09,11.09,0,0,1,277,24.67a12.38,12.38,0,0,1,1.63,6.44A12.47,12.47,0,0,1,277,37.56a11,11,0,0,1-4.46,4.26,14.51,14.51,0,0,1-12.77,0Zm9.27-7a5.33,5.33,0,0,0,1.17-3.7,5.27,5.27,0,0,0-1.17-3.69,3.82,3.82,0,0,0-5.69,0,5.36,5.36,0,0,0-1.14,3.69,5.51,5.51,0,0,0,1.1,3.72,3.56,3.56,0,0,0,2.83,1.27A3.73,3.73,0,0,0,269.06,34.81Z"/><path d="M320.12,21.75a10.35,10.35,0,0,1,2.56,7.41V43h-8.3V30.26a4,4,0,0,0-1.05-3,4.44,4.44,0,0,0-5.76,0,4,4,0,0,0-1.06,3V43h-8.3V30.26a4,4,0,0,0-1-3,3.79,3.79,0,0,0-2.85-1.06,3.91,3.91,0,0,0-2.92,1.06,4,4,0,0,0-1.06,3V43H282V19.25h8.3v3.13A8,8,0,0,1,293.19,20a8.66,8.66,0,0,1,4.05-.91,9.48,9.48,0,0,1,4.68,1.14,8.4,8.4,0,0,1,3.23,3.22,9.83,9.83,0,0,1,3.35-3.15A8.88,8.88,0,0,1,313.07,19,9.23,9.23,0,0,1,320.12,21.75Z"/><path d="M327.19,24.67a10.16,10.16,0,0,1,3.64-4.23A9.29,9.29,0,0,1,336,19a8.71,8.71,0,0,1,4.24,1A7.08,7.08,0,0,1,343,22.55v-3.3h8.3V43H343V39.7a6.94,6.94,0,0,1-2.77,2.62,8.74,8.74,0,0,1-4.22,1,9.38,9.38,0,0,1-5.14-1.48,10.13,10.13,0,0,1-3.64-4.26,14.72,14.72,0,0,1-1.33-6.45A14.61,14.61,0,0,1,327.19,24.67Zm14.52,2.84a4.28,4.28,0,0,0-6.16,0,5,5,0,0,0-1.23,3.62,5.14,5.14,0,0,0,1.23,3.62,4.25,4.25,0,0,0,6.16,0A5.09,5.09,0,0,0,343,31.11,5,5,0,0,0,341.71,27.51Z"/><path d="M356,24.67a10.13,10.13,0,0,1,3.66-4.23A9.38,9.38,0,0,1,364.8,19a8.54,8.54,0,0,1,4.09.95,7.06,7.06,0,0,1,2.81,2.6V11.67H380V43H371.7V39.7A6.88,6.88,0,0,1,369,42.32a8.56,8.56,0,0,1-4.19,1,9.38,9.38,0,0,1-5.14-1.48A10.13,10.13,0,0,1,356,37.56a14.72,14.72,0,0,1-1.34-6.45A14.61,14.61,0,0,1,356,24.67Zm14.52,2.84a4.28,4.28,0,0,0-6.16,0,5,5,0,0,0-1.23,3.62,5.14,5.14,0,0,0,1.23,3.62,4.25,4.25,0,0,0,6.16,0,5.09,5.09,0,0,0,1.25-3.64A5,5,0,0,0,370.5,27.51Z"/><path d="M28.3,47.28l-3.62,5.08,3.63-5.08Z"/><path d="M10.23,47v0l.75.53C10.72,47.36,10.47,47.17,10.23,47Z"/><path d="M41.42,4.86A26.21,26.21,0,0,0,3.53,39.35l3.28-4.6,4-5.66L10.46,40.4,10.23,47c.24.18.49.37.75.55a26.11,26.11,0,0,0,5.78,3.11,25.78,25.78,0,0,0,7.92,1.71l3.62-5.08h0l8-11.26L36,45l-.2,5.59A26.19,26.19,0,0,0,51.65,32.45,26.27,26.27,0,0,0,41.42,4.86Zm-9.6,24.69-6.06-4.32L17,37.56l.73-18.08-6-4.32L5.09,24.35A21.19,21.19,0,1,1,43.45,38.51c-.26.35-.52.7-.79,1l.53-13.13L37.13,22.1Z"/></svg>