<svg id="Layer_1" data-name="Layer 1" xmlns="http://www.w3.org/2000/svg" viewBox="0 0 102 102"><path d="M55,91.3,48.11,101,55,91.3Z"/><path d="M20.51,90.74v0l1.43,1C21.44,91.45,21,91.09,20.51,90.74Z"/><path d="M80.08,10.28A50.06,50.06,0,0,0,7.71,76.15L14,67.37l7.71-10.81L21,78.16l-.44,12.58c.46.35.93.71,1.43,1.05A50.06,50.06,0,0,0,48.11,101L55,91.3h0L70.38,69.79l-.6,17.1L69.4,97.56A50,50,0,0,0,99.62,63,50.19,50.19,0,0,0,80.08,10.28ZM61.74,57.44,50.17,49.19,33.38,72.73l1.4-34.53L23.22,30,10.69,47.5A40.47,40.47,0,1,1,84,74.55c-.49.67-1,1.34-1.5,2l1-25.08L71.88,43.21Z"/></svg>